<!DOCTYPE svg PUBLIC "-//W3C//DTD SVG 1.1//EN" "https://www.w3.org/Graphics/SVG/1.1/DTD/svg11.dtd"><svg xmlns="http://www.w3.org/2000/svg" id="sfn-svg" class="sfn-workflow-graph" width="300" height="427">  
<g transform="translate(12,19.078125)"><g class="nodes"><g class="node-container" transform="translate(124.83203125,18.890625)"><g class="node anchor"><circle class="shape" x="-15.96875" y="-8.890625" r="25.96875"/><text class="label"><tspan xml:space="preserve" text-anchor="middle" alignment-baseline="central">Start</tspan></text></g></g><g class="node-container" transform="translate(124.83203125,372.796875)"><g class="node anchor"><circle class="shape" x="-12.1875" y="-8.890625" r="22.1875"/><text class="label"><tspan xml:space="preserve" text-anchor="middle" alignment-baseline="central">End</tspan></text></g></g><g class="node-container" transform="translate(124.83203125,133.0625)"><g class="node state Map NotYetStarted Container" transform="translate(-78.1953125,-70.28125)"><rect class="shape" rx="5" ry="5" x="-10" y="-10" width="154.390625" height="138.5625"/><rect class="shape" rx="5" ry="5" x="-5" y="-5" width="155.390625" height="139.5625"/><rect class="shape" rx="5" ry="5" x="0" y="0" width="156.390625" height="140.5625"/><g class="branches" transform="translate(20,20)"><g class="branch" transform="translate(0,0)"><g class="nodes"><g class="node-container" transform="translate(58.1953125,18.890625)"><g class="node state Task NotYetStarted"><rect class="shape" rx="5" ry="5" x="-51.6875" y="-18.890625" width="103.375" height="37.78125"/><text class="label"><tspan xml:space="preserve" text-anchor="middle" alignment-baseline="central">ProcessBatch</tspan></text></g></g><g class="node-container" transform="translate(58.1953125,81.671875)"><g class="node state Pass NotYetStarted"><rect class="shape" rx="5" ry="5" x="-58.1953125" y="-18.890625" width="116.390625" height="37.78125"/><text class="label"><tspan xml:space="preserve" text-anchor="middle" alignment-baseline="central">WorkComplete</tspan></text></g></g></g><g class="edges"><g class="edge"><path class="path" marker-end="url(#arrowhead1207)" d="M58.1953125,37.78125L58.1953125,39.86458333333333C58.1953125,41.947916666666664,58.1953125,46.11458333333333,58.1953125,50.28124999999999C58.1953125,54.44791666666666,58.1953125,58.61458333333333,58.1953125,60.697916666666664L58.1953125,62.78125" style="fill: none;"/><defs><marker id="arrowhead1207" viewBox="0 0 10 10" refX="9" refY="5" markerUnits="strokeWidth" markerWidth="8" markerHeight="6" orient="auto"><path d="M 0 0 L 10 5 L 0 10 z"/></marker></defs></g></g></g></g><path class="path" marker-end="url(#arrowhead1208)" d="M78.1953125,0L78.19531249999999,1.6666666666666665C78.1953125,3.333333333333333,78.1953125,6.666666666666666,78.19531249999999,8.333333333333332C78.1953125,10,78.1953125,10,78.19531249999999,11.666666666666664C78.1953125,13.333333333333332,78.1953125,16.666666666666664,78.19531249999999,18.333333333333332L78.1953125,20" style="fill: none;"/></g></g><g class="node-container" transform="translate(203.828125,247.234375)"><g class="node state Pass NotYetStarted"><rect class="shape" rx="5" ry="5" x="-54.234375" y="-18.890625" width="108.46875" height="37.78125"/><text class="label"><tspan xml:space="preserve" text-anchor="middle" alignment-baseline="central">NotifySuccess</tspan></text></g></g><g class="node-container" transform="translate(45.8359375,310.015625)"><g class="node state Task NotYetStarted"><rect class="shape" rx="5" ry="5" x="-45.8359375" y="-18.890625" width="91.671875" height="37.78125"/><text class="label"><tspan xml:space="preserve" text-anchor="middle" alignment-baseline="central">NotifyError</tspan></text></g></g><g class="node-container" transform="translate(203.828125,310.015625)"><g class="node state Task NotYetStarted"><rect class="shape" rx="5" ry="5" x="-72.15625" y="-18.890625" width="144.3125" height="37.78125"/><text class="label"><tspan xml:space="preserve" text-anchor="middle" alignment-baseline="central">NotifyJobComplete</tspan></text></g></g></g><g class="edges"><g class="edge"><path class="path" marker-end="url(#arrowhead1209)" d="M191.89968502265006,203.34375L193.88775835220838,205.42708333333331C195.8758316817667,207.51041666666666,199.85197834088333,211.67708333333331,201.84005167044165,215.84374999999997C203.828125,220.01041666666663,203.828125,224.17708333333331,203.82812499999997,226.26041666666666L203.828125,228.34375" style="fill: none;"/><defs><marker id="arrowhead1209" viewBox="0 0 10 10" refX="9" refY="5" markerUnits="strokeWidth" markerWidth="8" markerHeight="6" orient="auto"><path d="M 0 0 L 10 5 L 0 10 z"/></marker></defs></g><g class="edge"><path class="path" marker-end="url(#arrowhead1210)" d="M57.76437747734994,203.34375L55.77630414779161,205.42708333333331C53.78823081823329,207.51041666666666,49.812084159116644,211.67708333333331,47.82401082955832,218.99218749999997C45.8359375,226.30729166666663,45.8359375,236.77083333333331,45.83593749999999,247.234375C45.8359375,257.69791666666663,45.8359375,268.1614583333333,45.83593749999999,275.4765625C45.8359375,282.79166666666663,45.8359375,286.9583333333333,45.83593749999999,289.04166666666663L45.8359375,291.125" style="fill: none;"/><defs><marker id="arrowhead1210" viewBox="0 0 10 10" refX="9" refY="5" markerUnits="strokeWidth" markerWidth="8" markerHeight="6" orient="auto"><path d="M 0 0 L 10 5 L 0 10 z"/></marker></defs></g><g class="edge"><path class="path" marker-end="url(#arrowhead1211)" d="M124.83203125,44.859375L124.83203124999997,45.76302083333333C124.83203124999999,46.666666666666664,124.83203124999999,48.47395833333333,124.83203124999997,51.46093749999999C124.83203124999999,54.44791666666666,124.83203124999999,58.61458333333333,124.83203124999997,60.697916666666664L124.83203125,62.78125" style="fill: none;"/><defs><marker id="arrowhead1211" viewBox="0 0 10 10" refX="9" refY="5" markerUnits="strokeWidth" markerWidth="8" markerHeight="6" orient="auto"><path d="M 0 0 L 10 5 L 0 10 z"/></marker></defs></g><g class="edge"><path class="path" marker-end="url(#arrowhead1212)" d="M45.8359375,328.90625L45.83593749999999,330.9895833333333C45.8359375,333.07291666666663,45.8359375,337.2395833333333,55.56541516414926,343.1891127062802C65.29489282829853,349.138642079227,84.75384815659706,356.87103415845394,94.48332582074633,360.73723019806744L104.2128034848956,364.60342623768094" style="fill: none;"/><defs><marker id="arrowhead1212" viewBox="0 0 10 10" refX="9" refY="5" markerUnits="strokeWidth" markerWidth="8" markerHeight="6" orient="auto"><path d="M 0 0 L 10 5 L 0 10 z"/></marker></defs></g><g class="edge"><path class="path" marker-end="url(#arrowhead1213)" d="M203.828125,266.125L203.82812499999997,268.2083333333333C203.828125,270.29166666666663,203.828125,274.4583333333333,203.82812499999997,278.625C203.828125,282.79166666666663,203.828125,286.9583333333333,203.82812499999997,289.04166666666663L203.828125,291.125" style="fill: none;"/><defs><marker id="arrowhead1213" viewBox="0 0 10 10" refX="9" refY="5" markerUnits="strokeWidth" markerWidth="8" markerHeight="6" orient="auto"><path d="M 0 0 L 10 5 L 0 10 z"/></marker></defs></g><g class="edge"><path class="path" marker-end="url(#arrowhead1214)" d="M203.828125,328.90625L203.82812499999997,330.9895833333333C203.828125,333.07291666666663,203.828125,337.2395833333333,194.09864733585073,343.1891127062802C184.36916967170146,349.138642079227,164.9102143434029,356.87103415845394,155.18073667925364,360.73723019806744L145.4512590151044,364.60342623768094" style="fill: none;"/><defs><marker id="arrowhead1214" viewBox="0 0 10 10" refX="9" refY="5" markerUnits="strokeWidth" markerWidth="8" markerHeight="6" orient="auto"><path d="M 0 0 L 10 5 L 0 10 z"/></marker></defs></g></g></g><style xmlns="http://www.w3.org/1999/xhtml">.node &gt; .shape {stroke: #555555;stroke-width: 0.6px;fill: #FFFFFF;} path {stroke: #555;background-color: #555;stroke-width: 1px;} .node.state.NotYetStarted &gt; .shape,.node.state.Container &gt; .shape {stroke-dasharray: 5 2;} .node.state.Failed &gt; .shape,rect.legend.Failed {fill: #DE322F;} .node.state.CaughtError &gt; .shape,rect.legend.CaughtError {fill: #FFA500;} .node.state.Succeeded &gt; .shape,rect.legend.Succeeded {fill: #2BD62E;} .node.state.InProgress &gt; .shape,rect.legend.InProgress {fill: #53c9ed;} .node.state.Cancelled &gt; .shape,rect.legend.Cancelled {fill: #dddddd;} .node.anchor &gt; .shape {fill: #FFDA75;} .node.state.hovered:not(.selected):not(.NotYetStarted) &gt; .shape,.node.selected &gt; .shape {stroke: #555555;stroke-width: 2px;} .node.state.Container.Failed &gt; .shape {fill: #EE9592;} .node.state.Container.CaughtError &gt; .shape {fill: #FFD27F;} .node.state.Container.Succeeded &gt; .shape {fill: #91EA9A;} .node.state.Container.InProgress &gt; .shape {fill :#A9E4F7;} .node.state.Container.Cancelled &gt; .shape {fill: #EEEEEE;} marker {fill: #555555;} .node.anchor,.node.state.NotYetStarted {cursor: default;} .node.state {cursor: pointer;} tspan .label {font-weight: normal;font-size: 12px;text-shadow: none;} </style></svg>